<svg width="25" height="25" viewBox="0 0 25 25" fill="none" xmlns="http://www.w3.org/2000/svg">
<path d="M12.7368 2.00196C9.01367 1.99219 5.7373 3.91846 3.86475 6.82862C3.78174 6.95801 3.87451 7.12891 4.02832 7.12891H5.74463C5.86182 7.12891 5.97168 7.07764 6.04492 6.98731C6.21582 6.77979 6.39893 6.5796 6.5918 6.38917C7.3877 5.59571 8.31299 4.97071 9.34326 4.53614C10.4077 4.08692 11.5405 3.85743 12.71 3.85743C13.8794 3.85743 15.0122 4.08448 16.0767 4.53614C17.1069 4.97071 18.0322 5.59571 18.8281 6.38917C19.624 7.18262 20.2466 8.10792 20.6836 9.13575C21.1353 10.2002 21.3623 11.3306 21.3623 12.5C21.3623 13.6694 21.1328 14.7998 20.6836 15.8643C20.249 16.8921 19.624 17.8174 18.8281 18.6108C18.0322 19.4043 17.1069 20.0293 16.0767 20.4639C15.0114 20.9138 13.8664 21.1446 12.71 21.1426C11.5405 21.1426 10.4077 20.9131 9.34326 20.4639C8.315 20.0298 7.38062 19.4005 6.5918 18.6108C6.39893 18.418 6.21826 18.2178 6.04492 18.0127C5.97168 17.9224 5.85938 17.8711 5.74463 17.8711H4.02832C3.87451 17.8711 3.7793 18.042 3.86475 18.1714C5.73486 21.0742 8.99658 22.9981 12.71 22.9981C18.4766 22.9981 23.1592 18.3569 23.2178 12.6074C23.2764 6.76514 18.5864 2.01661 12.7368 2.00196ZM9.64404 15.2344V13.3789H1.97803C1.87061 13.3789 1.78271 13.291 1.78271 13.1836V11.8164C1.78271 11.709 1.87061 11.6211 1.97803 11.6211H9.64404V9.76563C9.64404 9.60206 9.83447 9.50928 9.96143 9.61182L13.4258 12.3462C13.4491 12.3645 13.468 12.3878 13.481 12.4145C13.494 12.4411 13.5007 12.4704 13.5007 12.5C13.5007 12.5297 13.494 12.5589 13.481 12.5856C13.468 12.6122 13.4491 12.6355 13.4258 12.6538L9.96143 15.3882C9.83447 15.4883 9.64404 15.398 9.64404 15.2344Z" fill="#454D9D"/>
</svg>
